<svg version="1.1" id="Layer_1" xmlns="http://www.w3.org/2000/svg" xmlns:xlink="http://www.w3.org/1999/xlink" x="0px" y="0px"
	 width="100%" viewBox="0 0 780 210" enable-background="new 0 0 780 210" xml:space="preserve">
<path fill="#000000" opacity="1.000000" stroke="none" 
	d="
M508.000000,211.000000 
	C338.666687,211.000000 169.833374,211.000000 1.000045,211.000000 
	C1.000030,141.000031 1.000030,71.000053 1.000015,1.000064 
	C260.999939,1.000043 520.999878,1.000043 780.999878,1.000021 
	C780.999878,70.999931 780.999878,140.999863 780.999939,210.999908 
	C690.166687,211.000000 599.333313,211.000000 508.000000,211.000000 
M24.999102,106.500000 
	C24.999119,129.154160 24.991098,151.808334 25.002583,174.462494 
	C25.008228,185.597733 31.390371,191.998383 42.466671,191.999298 
	C88.274796,192.003067 134.082932,192.003342 179.891052,191.998978 
	C190.278931,191.997986 196.995712,185.371033 196.997452,175.098145 
	C197.005249,129.123444 197.004852,83.148735 196.997910,37.174034 
	C196.996307,26.541656 190.390610,20.005390 179.626846,20.003145 
	C133.985291,19.993631 88.343742,19.995508 42.702194,20.001732 
	C31.557514,20.003252 25.007769,26.491184 25.002405,37.537399 
	C24.991404,60.191597 24.999104,82.845802 24.999102,106.500000 
z"/>
<path fill="#FFFFFF" opacity="1.000000" stroke="none" 
	d="
M24.999102,106.000000 
	C24.999104,82.845802 24.991404,60.191597 25.002405,37.537399 
	C25.007769,26.491184 31.557514,20.003252 42.702194,20.001732 
	C88.343742,19.995508 133.985291,19.993631 179.626846,20.003145 
	C190.390610,20.005390 196.996307,26.541656 196.997910,37.174034 
	C197.004852,83.148735 197.005249,129.123444 196.997452,175.098145 
	C196.995712,185.371033 190.278931,191.997986 179.891052,191.998978 
	C134.082932,192.003342 88.274796,192.003067 42.466671,191.999298 
	C31.390371,191.998383 25.008228,185.597733 25.002583,174.462494 
	C24.991098,151.808334 24.999119,129.154160 24.999102,106.000000 
M89.466629,37.019485 
	C89.294701,37.286777 89.122772,37.554073 88.260368,37.998798 
	C85.340462,42.304821 82.420563,46.610847 79.161179,51.438580 
	C78.526848,52.996086 77.892509,54.553596 76.526390,56.043564 
	C52.740818,70.344208 44.566265,101.537796 53.015884,126.136353 
	C53.180691,126.616150 54.382267,126.739807 55.135517,127.843224 
	C55.642673,129.936142 56.149830,132.029053 56.836121,134.811188 
	C58.507332,137.321442 60.178547,139.831680 61.997124,142.986633 
	C64.633202,145.776474 67.269287,148.566330 70.127724,151.916641 
	C71.052902,152.665833 71.978081,153.415009 73.222069,154.755646 
	C76.790260,156.845749 80.358452,158.935837 84.429321,161.539444 
	C88.886047,163.135422 93.086166,166.251007 98.795677,164.332413 
	C100.712410,165.238235 102.652222,166.957809 104.541756,166.904251 
	C111.477608,166.707626 118.745041,168.861496 125.436081,164.975266 
	C139.730515,161.483276 151.805893,154.635651 160.719955,141.809189 
	C162.462906,138.546570 164.205841,135.283951 166.254028,131.628464 
	C166.254028,131.628464 166.348724,131.140030 166.766663,130.585632 
	C172.288757,119.100464 173.510193,106.996437 170.915100,94.694130 
	C167.353485,77.810036 159.137741,63.839420 143.462250,54.248669 
	C144.157593,50.838810 141.077347,49.849277 139.268265,47.216457 
	C136.550903,44.123920 133.833527,41.031384 130.723160,37.364777 
	C126.585716,33.530170 121.330505,33.103844 115.634430,32.047234 
	C110.746803,30.274693 105.862610,27.975698 100.172157,31.934338 
	C96.767242,33.594585 93.362335,35.254833 89.466629,37.019485 
z"/>
<path fill="#C2C7D6" opacity="1.000000" stroke="none" 
	d="
M143.749023,54.900490 
	C159.137741,63.839420 167.353485,77.810036 170.915100,94.694130 
	C173.510193,106.996437 172.288757,119.100464 166.249542,130.770035 
	C165.518707,130.958572 165.305008,130.962723 165.079407,130.945435 
	C165.067505,130.923996 165.021011,130.908417 164.998062,130.648102 
	C164.672470,130.258469 164.369843,130.129150 164.059174,129.969635 
	C164.051163,129.939468 163.989319,129.930771 163.908966,129.639832 
	C163.291275,129.189957 162.753952,129.031006 162.194687,128.822174 
	C162.172760,128.772324 162.073380,128.727676 162.056000,128.405502 
	C161.130295,127.664955 160.221985,127.246582 159.265778,126.773804 
	C159.217865,126.719398 159.073044,126.712776 159.070786,126.379242 
	C157.095596,124.364899 153.431488,122.675369 153.440094,121.004761 
	C153.479080,113.439064 146.273163,110.102623 144.253891,103.633385 
	C143.800858,103.273293 143.496765,103.132446 142.983521,102.697922 
	C140.291351,101.281303 137.762161,100.248116 135.342361,99.002411 
	C133.844116,98.231125 132.512131,97.136879 131.470108,96.146568 
	C133.170349,95.294960 134.728729,94.704201 135.792999,93.625809 
	C137.716309,91.677010 137.488235,90.045082 134.567368,89.127151 
	C135.134796,87.180969 135.884567,85.619537 136.016403,84.007584 
	C136.268616,80.923653 136.169342,77.810974 136.488556,74.393471 
	C137.779144,67.206795 146.960190,63.311520 143.749023,54.900490 
z"/>
<path fill="#C2C7D6" opacity="1.000000" stroke="none" 
	d="
M55.100136,127.029633 
	C54.382267,126.739807 53.180691,126.616150 53.015884,126.136353 
	C44.566265,101.537796 52.740818,70.344208 76.950714,56.502884 
	C75.403389,64.028976 81.592110,67.803993 83.955673,73.352295 
	C84.009010,73.561066 84.208748,73.942924 84.322998,74.318771 
	C85.067184,79.969803 85.705505,85.244041 86.296013,90.523628 
	C86.319366,90.732475 85.887154,90.992287 85.424202,91.327942 
	C85.144234,91.598656 85.107277,91.769798 85.037857,92.154259 
	C85.339027,92.572899 85.672646,92.778221 86.258446,93.215012 
	C87.739227,94.862480 88.967819,96.278481 90.111320,97.596413 
	C85.840782,99.486076 81.904335,101.227921 77.689301,103.108353 
	C76.990440,104.171135 76.570160,105.095329 75.877525,106.233063 
	C74.527885,108.031654 73.367996,109.567909 72.394890,111.214554 
	C71.262817,113.130203 70.294334,115.142540 69.143875,117.474861 
	C68.205788,118.944016 67.609077,120.448914 66.509567,121.085930 
	C62.802769,123.233475 58.917286,125.072571 55.100136,127.029633 
z"/>
<path fill="#BF8A29" opacity="1.000000" stroke="none" 
	d="
M160.091812,142.057663 
	C151.805893,154.635651 139.730515,161.483276 125.258324,164.381378 
	C125.144630,161.800049 125.208694,159.812592 125.503647,157.524689 
	C125.507614,152.522186 125.280693,147.820129 125.162430,142.873978 
	C125.287285,142.033752 125.303474,141.437622 125.366020,140.551743 
	C125.493889,139.508499 125.575401,138.755035 125.760986,137.751953 
	C125.910866,137.327988 125.956657,137.153610 126.362267,136.925125 
	C128.154846,135.659912 129.587616,134.448822 131.081635,133.182159 
	C131.142883,133.126617 131.290939,133.052917 131.545654,133.041504 
	C132.161896,132.713974 132.523422,132.397873 133.165131,131.877228 
	C136.001999,129.534225 138.558670,127.395744 141.507141,125.145660 
	C142.982727,125.002472 144.066513,124.970886 145.311493,125.224197 
	C147.271225,127.017265 149.069794,128.525452 151.032684,130.328400 
	C154.161957,134.434662 157.126892,138.246155 160.091812,142.057663 
M147.064865,146.689514 
	C151.264816,146.385284 153.161026,141.154800 150.018234,134.789459 
	C148.788910,139.342972 147.895370,142.652710 147.064865,146.689514 
z"/>
<path fill="#77879B" opacity="1.000000" stroke="none" 
	d="
M125.272751,157.825134 
	C125.208694,159.812592 125.144630,161.800049 125.156403,164.193176 
	C118.745041,168.861496 111.477608,166.707626 104.541756,166.904251 
	C102.652222,166.957809 100.712410,165.238235 98.650566,163.769272 
	C99.030861,160.482269 99.556267,157.758392 100.091934,154.594299 
	C99.707848,151.694077 99.313507,149.234055 99.073647,146.533081 
	C99.508598,144.223099 99.789062,142.154083 100.473618,140.048340 
	C101.956123,139.878586 103.034531,139.745560 104.487228,139.694061 
	C105.623718,139.750519 106.385941,139.725449 107.017700,140.024918 
	C106.887253,142.101242 106.887253,143.853012 106.887253,145.841187 
	C111.047882,145.113083 112.417755,148.444214 112.727402,151.582748 
	C115.103531,148.635254 117.607933,145.528671 120.112328,142.422073 
	C120.288345,142.793564 120.464363,143.165054 120.640381,143.536545 
	C121.460915,143.388443 122.281456,143.240341 123.070465,143.487518 
	C123.031891,147.414948 122.840378,150.961868 123.121643,154.470886 
	C123.215271,155.638947 124.521088,156.709839 125.272751,157.825134 
z"/>
<path fill="#394754" opacity="1.000000" stroke="none" 
	d="
M100.069534,140.085068 
	C99.789062,142.154083 99.508598,144.223099 98.729691,146.609253 
	C95.751411,149.264893 93.271561,151.603409 90.527931,154.130859 
	C88.151649,156.555191 86.039146,158.790558 83.926651,161.025940 
	C80.358452,158.935837 76.790260,156.845749 73.221344,154.102798 
	C73.221291,151.741119 73.567368,149.944153 73.157936,148.339981 
	C71.925842,143.512589 70.399490,138.760300 69.085022,133.711273 
	C69.741013,132.952667 70.299881,132.461472 71.197861,132.001343 
	C72.437607,132.689804 74.014633,133.251480 74.123581,134.020996 
	C74.636993,137.647476 74.522255,141.364899 75.066895,144.984375 
	C75.598961,148.520401 76.657532,151.977203 77.579079,155.865860 
	C78.754150,153.987686 79.371513,153.000931 80.046814,152.156433 
	C80.197388,152.346329 80.290024,152.393951 80.382660,152.441559 
	C80.260124,152.290390 80.137596,152.139221 80.026573,151.612411 
	C79.009712,144.330505 77.981354,137.424225 76.871353,129.969650 
	C79.667870,134.140533 82.236801,137.971985 84.805740,141.803436 
	C85.163139,141.613708 85.520538,141.423965 85.877945,141.234222 
	C84.254326,137.501312 82.630707,133.768402 81.007095,130.035507 
	C81.336472,129.878052 81.665855,129.720596 81.995239,129.563156 
	C84.660995,132.849258 87.326752,136.135361 90.518539,140.069901 
	C92.153145,138.224442 93.574173,136.620117 95.245132,134.787872 
	C95.304199,132.700531 95.113342,130.841141 95.204468,128.782684 
	C95.664146,127.690178 95.841827,126.796715 96.307526,126.141251 
	C98.800537,135.645218 99.743996,136.319031 110.150894,136.213196 
	C110.910454,136.707794 111.502380,136.929932 111.994583,137.484894 
	C110.312630,138.445267 108.730392,139.072815 107.148155,139.700378 
	C106.385941,139.725449 105.623718,139.750519 104.414894,139.398560 
	C101.695999,135.810333 100.635040,137.039581 100.069534,140.085068 
M80.602821,140.518219 
	C80.602821,140.518219 80.473419,140.600800 80.602821,140.518219 
M81.594246,142.515869 
	C81.594246,142.515869 81.476578,142.588745 81.594246,142.515869 
z"/>
<path fill="#363034" opacity="1.000000" stroke="none" 
	d="
M116.109818,32.572273 
	C121.330505,33.103844 126.585716,33.530170 130.639374,37.869942 
	C130.983414,41.449265 131.411240,44.523426 131.845566,47.644245 
	C133.538803,48.105511 135.278580,48.579456 137.025940,49.277031 
	C137.033539,49.500660 137.035233,49.948174 136.767517,50.067867 
	C135.976624,51.106159 135.453445,52.024757 134.556824,52.959938 
	C132.549820,53.632702 130.916229,54.288887 129.479340,54.866062 
	C127.414909,52.646694 125.526031,50.616055 123.330460,48.255711 
	C123.448875,46.558949 123.610626,44.241261 123.772369,41.923573 
	C123.237999,42.247593 122.703629,42.571613 122.169258,42.895634 
	C120.405212,41.485676 118.641174,40.075718 117.242943,38.958149 
	C114.433006,39.323639 111.709572,39.677876 109.005829,39.692467 
	C109.067078,35.923428 109.796242,33.218727 114.235428,33.859947 
	C114.786720,33.939579 115.481522,33.025757 116.109818,32.572273 
M122.806084,39.733265 
	C123.392723,39.432903 123.979362,39.132542 124.566002,38.832184 
	C124.085907,38.454567 123.605820,38.076950 123.125725,37.699329 
	C122.862320,38.238316 122.598915,38.777306 122.806084,39.733265 
M119.706848,36.616131 
	C119.999855,36.400841 120.292854,36.185547 120.585854,35.970253 
	C120.405075,35.781597 120.224297,35.592945 120.043510,35.404293 
	C119.813072,35.686874 119.582634,35.969456 119.706848,36.616131 
z"/>
<path fill="#363034" opacity="1.000000" stroke="none" 
	d="
M55.117828,127.436432 
	C58.917286,125.072571 62.802769,123.233475 66.509567,121.085930 
	C67.609077,120.448914 68.205788,118.944016 69.382149,117.527161 
	C69.731400,117.217522 70.205215,117.334106 70.210999,117.652664 
	C71.147919,118.317337 72.079056,118.663460 73.004608,119.004250 
	C72.999039,118.998917 72.988434,118.987602 73.065979,119.235619 
	C73.431084,119.657722 73.718643,119.831802 74.003204,120.003036 
	C74.000214,120.000198 73.994667,119.994621 74.000153,120.338898 
	C75.679382,122.401428 77.353119,124.119667 78.667007,125.887405 
	C75.886963,127.629601 73.466759,129.322311 70.885506,130.703949 
	C69.152786,128.252701 67.575645,127.334831 64.969330,129.273376 
	C62.411491,131.175873 59.444443,132.528198 56.656982,134.121979 
	C56.149830,132.029053 55.642673,129.936142 55.117828,127.436432 
z"/>
<path fill="#5B2421" opacity="1.000000" stroke="none" 
	d="
M137.035233,49.948174 
	C137.035233,49.948174 137.033539,49.500660 137.239563,49.002899 
	C138.104431,48.318840 138.763275,48.132538 139.422119,47.946236 
	C141.077347,49.849277 144.157593,50.838810 143.605637,54.574577 
	C146.960190,63.311520 137.779144,67.206795 136.384201,74.621231 
	C134.622787,78.529419 133.238342,81.893105 131.538773,85.040024 
	C131.852615,81.506065 132.481583,78.188881 133.403229,74.689789 
	C133.816528,72.473999 134.543488,70.233612 133.935349,68.447906 
	C132.539398,64.348946 132.911880,61.700184 137.709396,60.838284 
	C138.253616,60.740517 138.624405,59.677269 139.374680,59.051762 
	C140.192169,58.924179 140.710587,58.806545 141.229019,58.688915 
	C141.222397,58.512096 141.215759,58.335278 141.209137,58.158459 
	C140.503433,58.078728 139.797745,57.999001 139.081543,57.681679 
	C139.071030,57.444088 139.007324,56.972733 139.011932,56.643112 
	C138.992432,55.874573 138.968338,55.435658 138.952942,54.663818 
	C138.961639,53.886879 138.961639,53.442860 139.206573,52.834923 
	C138.646072,51.763393 137.840652,50.855785 137.035233,49.948174 
z"/>
<path fill="#271B1D" opacity="1.000000" stroke="none" 
	d="
M79.500664,50.916874 
	C82.420563,46.610847 85.340462,42.304821 88.595306,38.263962 
	C89.013039,39.278458 89.095848,40.027790 89.178650,40.777119 
	C93.529068,40.168133 97.313782,45.647823 101.973251,42.310051 
	C102.701271,43.994511 103.405960,45.332645 103.793846,46.797501 
	C103.005806,47.588806 102.534576,48.253387 101.684837,48.940544 
	C100.548210,48.981163 99.790085,48.999210 98.956192,48.657257 
	C97.565765,47.865112 96.251106,47.432972 94.573135,46.972946 
	C92.297440,45.697472 90.385040,44.449890 88.169662,43.004658 
	C86.645073,45.363838 84.826050,48.178646 82.568893,50.996193 
	C81.254066,50.971577 80.377365,50.944225 79.500664,50.916874 
z"/>
<path fill="#5B2421" opacity="1.000000" stroke="none" 
	d="
M160.405884,141.933426 
	C157.126892,138.246155 154.161957,134.434662 151.269531,130.133713 
	C153.240540,128.827057 155.139038,128.009842 157.389908,127.162224 
	C158.185867,126.992134 158.629456,126.852455 159.073044,126.712776 
	C159.073044,126.712776 159.217865,126.719398 159.156769,127.145477 
	C160.088226,127.956924 161.080811,128.342300 162.073380,128.727676 
	C162.073380,128.727676 162.172760,128.772324 162.225311,129.136841 
	C162.848358,129.644485 163.418839,129.787628 163.989319,129.930771 
	C163.989319,129.930771 164.051163,129.939468 164.081863,130.230392 
	C164.415375,130.650345 164.718201,130.779388 165.021011,130.908417 
	C165.021011,130.908417 165.067505,130.923996 165.108292,131.191895 
	C165.346252,131.745773 165.612823,131.932953 165.948792,132.021332 
	C164.205841,135.283951 162.462906,138.546570 160.405884,141.933426 
z"/>
<path fill="#271B1D" opacity="1.000000" stroke="none" 
	d="
M56.746552,134.466583 
	C59.444443,132.528198 62.411491,131.175873 64.969330,129.273376 
	C67.575645,127.334831 69.152786,128.252701 70.836540,130.942413 
	C70.948631,131.491974 70.858757,131.970291 70.858757,131.970291 
	C70.299881,132.461472 69.741013,132.952667 68.796547,133.835587 
	C67.558563,135.139816 66.706169,136.052322 65.568031,137.130737 
	C64.138107,138.978409 62.993931,140.660172 61.849754,142.341934 
	C60.178547,139.831680 58.507332,137.321442 56.746552,134.466583 
z"/>
<path fill="#CEA997" opacity="1.000000" stroke="none" 
	d="
M84.177979,161.282684 
	C86.039146,158.790558 88.151649,156.555191 90.579788,154.512299 
	C91.977875,156.114090 93.502480,158.876785 94.064484,158.693176 
	C96.236778,157.983444 98.102028,156.333923 100.081665,155.034531 
	C99.556267,157.758392 99.030861,160.482269 98.360184,163.536774 
	C93.086166,166.251007 88.886047,163.135422 84.177979,161.282684 
z"/>
<path fill="#5A473F" opacity="1.000000" stroke="none" 
	d="
M115.872124,32.309753 
	C115.481522,33.025757 114.786720,33.939579 114.235428,33.859947 
	C109.796242,33.218727 109.067078,35.923428 108.625092,39.679943 
	C106.501793,39.634964 104.778923,39.262863 102.952148,38.693962 
	C102.666138,38.248077 102.425713,38.084995 102.080811,37.688248 
	C102.136375,36.515911 102.465157,35.610672 102.282967,34.823730 
	C102.049759,33.816402 101.404915,32.904385 100.937462,31.951294 
	C105.862610,27.975698 110.746803,30.274693 115.872124,32.309753 
z"/>
<path fill="#363034" opacity="1.000000" stroke="none" 
	d="
M79.330917,51.177727 
	C80.377365,50.944225 81.254066,50.971577 82.910309,51.047913 
	C84.489471,52.417656 85.289085,53.738415 86.088707,55.059174 
	C85.706459,55.282703 85.324211,55.506233 84.941956,55.729763 
	C84.284668,55.143543 83.627380,54.557323 82.592728,53.986588 
	C81.278198,55.925091 79.502708,57.889622 79.595398,59.761646 
	C79.743828,62.759068 80.843819,65.951439 84.987129,66.416412 
	C84.638809,68.934029 84.270569,71.038780 83.902328,73.143532 
	C81.592110,67.803993 75.403389,64.028976 77.316612,56.536652 
	C77.892509,54.553596 78.526848,52.996086 79.330917,51.177727 
z"/>
<path fill="#475B6D" opacity="1.000000" stroke="none" 
	d="
M65.853775,136.964828 
	C66.706169,136.052322 67.558563,135.139816 68.699432,134.103027 
	C70.399490,138.760300 71.925842,143.512589 73.157936,148.339981 
	C73.567368,149.944153 73.221291,151.741119 73.061935,153.807068 
	C71.978081,153.415009 71.052902,152.665833 70.045761,151.194153 
	C68.593803,145.969391 67.223793,141.467102 65.853775,136.964828 
z"/>
<path fill="#394754" opacity="1.000000" stroke="none" 
	d="
M65.568039,137.130737 
	C67.223793,141.467102 68.593803,145.969391 69.934586,150.913910 
	C67.269287,148.566330 64.633202,145.776474 61.923439,142.664276 
	C62.993931,140.660172 64.138107,138.978409 65.568039,137.130737 
z"/>
<path fill="#271B1D" opacity="1.000000" stroke="none" 
	d="
M100.554810,31.942816 
	C101.404915,32.904385 102.049759,33.816402 102.282967,34.823730 
	C102.465157,35.610672 102.136375,36.515911 101.777145,37.584663 
	C100.690735,38.192547 99.861832,38.584354 99.014709,38.990265 
	C98.996506,39.004368 98.963226,39.036331 98.586136,39.026600 
	C95.458504,38.316269 92.707962,37.615673 89.957420,36.915077 
	C93.362335,35.254833 96.767242,33.594585 100.554810,31.942816 
z"/>
<path fill="#271B1D" opacity="1.000000" stroke="none" 
	d="
M139.345184,47.581345 
	C138.763275,48.132538 138.104431,48.318840 137.231964,48.779274 
	C135.278580,48.579456 133.538803,48.105511 131.845566,47.644245 
	C131.411240,44.523426 130.983414,41.449265 130.835876,38.156975 
	C133.833527,41.031384 136.550903,44.123920 139.345184,47.581345 
z"/>
<path fill="#363034" opacity="1.000000" stroke="none" 
	d="
M89.712021,36.967281 
	C92.707962,37.615673 95.458504,38.316269 98.601799,39.270409 
	C99.129936,39.797409 99.265320,40.070869 99.400711,40.344326 
	C99.278114,39.888268 99.155518,39.432213 99.032928,38.976158 
	C99.861832,38.584354 100.690735,38.192547 101.823311,37.904324 
	C102.425713,38.084995 102.666138,38.248077 102.680313,38.909607 
	C102.324898,40.202614 102.137413,41.083168 101.949921,41.963718 
	C97.313782,45.647823 93.529068,40.168133 89.178650,40.777119 
	C89.095848,40.027790 89.013039,39.278458 88.940544,38.175247 
	C89.122772,37.554073 89.294701,37.286777 89.712021,36.967281 
z"/>
<path fill="#BF8A29" opacity="1.000000" stroke="none" 
	d="
M166.101410,131.824890 
	C165.612823,131.932953 165.346252,131.745773 165.120209,131.213318 
	C165.305008,130.962723 165.518707,130.958572 166.040573,131.047241 
	C166.348724,131.140030 166.254028,131.628464 166.101410,131.824890 
z"/>
<path fill="#000000" opacity="1.000000" stroke="none" 
	d="
M131.105515,96.187614 
	C132.512131,97.136879 133.844116,98.231125 135.342361,99.002411 
	C137.762161,100.248116 140.291351,101.281303 142.915543,103.083549 
	C142.398163,105.891769 141.739594,108.020699 140.773712,109.971497 
	C134.628479,104.687897 134.489426,104.729202 132.361145,112.143250 
	C132.272446,112.452194 132.100052,112.737106 131.650833,112.919037 
	C129.596939,111.810059 127.858856,110.815277 126.122147,109.673935 
	C126.123528,109.527382 126.137115,109.235107 126.555367,109.134750 
	C127.881523,102.642471 128.789429,96.250557 129.743469,89.819817 
	C129.789627,89.780998 129.904648,89.817261 130.243927,89.909576 
	C134.482697,91.749229 131.364639,94.089127 131.105515,96.187614 
z"/>
<path fill="#BF8A29" opacity="1.000000" stroke="none" 
	d="
M159.070786,126.379242 
	C158.629456,126.852455 158.185867,126.992134 157.088470,126.944832 
	C153.911896,125.230934 151.389130,123.704025 149.069183,121.919884 
	C150.028091,121.168427 150.784180,120.674202 151.540268,120.179977 
	C150.862686,119.698997 150.175659,119.230713 149.509232,118.734718 
	C147.309326,117.097382 145.116852,115.450020 143.049759,113.424171 
	C143.586273,109.978767 143.994553,106.915703 144.402832,103.852631 
	C146.273163,110.102623 153.479080,113.439064 153.440094,121.004761 
	C153.431488,122.675369 157.095596,124.364899 159.070786,126.379242 
z"/>
<path fill="#394754" opacity="1.000000" stroke="none" 
	d="
M144.253891,103.633385 
	C143.994553,106.915703 143.586273,109.978767 142.757629,113.629944 
	C141.794067,115.473305 141.250885,116.728554 140.360428,117.987892 
	C136.908447,120.334480 133.803741,122.676971 130.367035,124.997429 
	C129.359055,124.963959 128.683075,124.952530 128.006363,124.569237 
	C127.983597,123.452202 127.961578,122.707031 127.956947,121.970886 
	C127.974327,121.979919 127.930649,121.954247 128.290619,121.951500 
	C132.794083,118.015709 136.937546,114.082664 141.081024,110.149620 
	C141.739594,108.020699 142.398163,105.891769 143.124695,103.377228 
	C143.496765,103.132446 143.800858,103.273293 144.253891,103.633385 
z"/>
<path fill="#BF8A29" opacity="1.000000" stroke="none" 
	d="
M131.853897,85.256790 
	C133.238342,81.893105 134.622787,78.529419 136.111572,74.937973 
	C136.169342,77.810974 136.268616,80.923653 136.016403,84.007584 
	C135.884567,85.619537 135.134796,87.180969 134.322540,89.016251 
	C133.265350,88.155815 132.549713,87.044350 131.845917,85.764206 
	C131.857742,85.595528 131.853897,85.256790 131.853897,85.256790 
z"/>
<path fill="#271B1D" opacity="1.000000" stroke="none" 
	d="
M131.834076,85.932877 
	C132.549713,87.044350 133.265350,88.155815 134.225800,89.378189 
	C137.488235,90.045082 137.716309,91.677010 135.792999,93.625809 
	C134.728729,94.704201 133.170349,95.294960 131.470108,96.146568 
	C131.364639,94.089127 134.482697,91.749229 130.183502,89.572021 
	C130.467255,88.072395 131.150665,87.002640 131.834076,85.932877 
z"/>
<path fill="#BF8A29" opacity="1.000000" stroke="none" 
	d="
M162.056000,128.405502 
	C161.080811,128.342300 160.088226,127.956924 159.204666,127.199875 
	C160.221985,127.246582 161.130295,127.664955 162.056000,128.405502 
z"/>
<path fill="#BF8A29" opacity="1.000000" stroke="none" 
	d="
M163.908966,129.639832 
	C163.418839,129.787628 162.848358,129.644485 162.247253,129.186691 
	C162.753952,129.031006 163.291275,129.189957 163.908966,129.639832 
z"/>
<path fill="#BF8A29" opacity="1.000000" stroke="none" 
	d="
M164.998062,130.648102 
	C164.718201,130.779388 164.415375,130.650345 164.089874,130.260559 
	C164.369843,130.129150 164.672470,130.258469 164.998062,130.648102 
z"/>
<path fill="#363034" opacity="1.000000" stroke="none" 
	d="
M96.019501,125.903259 
	C95.841827,126.796715 95.664146,127.690178 94.943611,128.583191 
	C90.164986,124.049217 86.162987,119.106926 79.016495,119.542259 
	C77.339592,119.644417 75.668457,119.841309 73.994667,119.994621 
	C73.994667,119.994621 74.000214,120.000198 73.912323,119.766235 
	C73.545769,119.350708 73.267097,119.169159 72.988434,118.987602 
	C72.988434,118.987602 72.999039,118.998917 72.993439,118.790955 
	C72.987846,118.582993 73.001717,118.156097 73.127701,117.830246 
	C73.694130,116.232689 74.134567,114.960999 74.505302,113.890572 
	C76.233299,114.726578 77.675499,115.424324 80.244202,116.667068 
	C78.532570,112.215866 77.341225,109.117699 76.149872,106.019531 
	C76.570160,105.095329 76.990440,104.171135 77.845642,103.438622 
	C79.518234,106.111076 80.755890,108.591858 82.131958,111.374802 
	C84.963264,116.133018 88.401550,119.693115 93.530685,121.766922 
	C92.246025,118.185806 91.159363,115.156631 90.329559,111.989319 
	C91.098389,111.576553 91.610352,111.301933 92.372070,111.126320 
	C93.659508,111.115143 94.697205,111.004959 95.949432,111.144432 
	C96.754021,111.616554 97.344063,111.839012 98.055519,112.274109 
	C98.384712,112.750679 98.646294,112.940445 99.119705,113.358643 
	C102.342278,118.238052 107.054886,118.974937 111.965775,119.445610 
	C111.390106,120.540306 110.866280,121.318443 110.205437,122.300102 
	C111.425697,122.785027 112.385284,123.166359 113.990105,123.804108 
	C105.773170,129.619644 104.604973,119.573799 100.154480,118.332314 
	C98.733276,120.613861 97.462105,122.654556 96.139572,124.996048 
	C96.065308,125.498985 96.042404,125.701118 96.019501,125.903259 
z"/>
<path fill="#100B0D" opacity="1.000000" stroke="none" 
	d="
M83.955673,73.352295 
	C84.270569,71.038780 84.638809,68.934029 85.289192,66.285950 
	C85.887054,64.606003 86.721565,63.303909 86.421654,62.363651 
	C85.505524,59.491375 84.152893,56.758324 82.970093,53.971104 
	C83.627380,54.557323 84.284668,55.143543 84.941956,55.729763 
	C85.324211,55.506233 85.706459,55.282703 86.088707,55.059174 
	C85.289085,53.738415 84.489471,52.417656 83.348434,51.045174 
	C84.826050,48.178646 86.645073,45.363838 88.169662,43.004658 
	C90.385040,44.449890 92.297440,45.697472 94.574890,47.314629 
	C93.956352,48.828739 92.972755,49.973278 92.374298,50.669659 
	C94.174507,54.092152 96.009506,57.580807 97.850159,61.383293 
	C97.285004,62.730927 96.714211,63.764725 96.103722,65.117889 
	C96.054733,65.651604 96.045425,65.865944 95.695251,66.097687 
	C94.901031,66.085808 94.447685,66.056534 93.858078,65.732422 
	C93.095787,65.080719 92.469742,64.723846 91.843704,64.366974 
	C91.553467,65.182457 91.263229,65.997940 90.582970,66.891586 
	C89.289818,69.302971 88.386696,71.636177 87.158081,73.925690 
	C85.957985,73.902306 85.083366,73.922615 84.208748,73.942924 
	C84.208748,73.942924 84.009010,73.561066 83.955673,73.352295 
z"/>
<path fill="#100B0D" opacity="1.000000" stroke="none" 
	d="
M92.122314,111.027313 
	C91.610352,111.301933 91.098389,111.576553 90.036613,111.725327 
	C89.195938,109.693985 88.905083,107.788498 88.588943,105.717422 
	C85.111153,105.987907 82.788208,107.558334 81.993553,111.072632 
	C80.755890,108.591858 79.518234,106.111076 78.124222,103.300034 
	C81.904335,101.227921 85.840782,99.486076 90.111320,97.596413 
	C88.967819,96.278481 87.739227,94.862480 86.074387,92.909546 
	C85.448860,92.228722 85.259590,92.084831 85.070312,91.940933 
	C85.107277,91.769798 85.144234,91.598656 85.677887,91.539841 
	C87.417831,90.807632 88.661087,89.963097 89.951942,89.317245 
	C89.999535,89.515938 90.121231,89.907631 90.092636,90.308533 
	C90.750130,97.482056 91.436218,104.254684 92.122314,111.027313 
z"/>
<path fill="#363034" opacity="1.000000" stroke="none" 
	d="
M89.904358,89.118561 
	C88.661087,89.963097 87.417831,90.807632 85.920898,91.440262 
	C85.887154,90.992287 86.319366,90.732475 86.296013,90.523628 
	C85.705505,85.244041 85.067184,79.969803 84.322998,74.318771 
	C85.083366,73.922615 85.957985,73.902306 87.259491,74.349876 
	C88.435150,77.634567 89.183907,80.451363 89.940842,83.682480 
	C89.934128,85.770714 89.919243,87.444641 89.904358,89.118561 
z"/>
<path fill="#475B6D" opacity="1.000000" stroke="none" 
	d="
M75.877533,106.233063 
	C77.341225,109.117699 78.532570,112.215866 80.244202,116.667068 
	C77.675499,115.424324 76.233299,114.726578 74.505302,113.890572 
	C74.134567,114.960999 73.694130,116.232689 72.851768,117.694687 
	C71.701637,117.701355 70.953423,117.517731 70.205215,117.334106 
	C70.205215,117.334106 69.731400,117.217522 69.493134,117.165222 
	C70.294334,115.142540 71.262817,113.130203 72.394890,111.214554 
	C73.367996,109.567909 74.527885,108.031654 75.877533,106.233063 
z"/>
<path fill="#363034" opacity="1.000000" stroke="none" 
	d="
M85.037857,92.154259 
	C85.259590,92.084831 85.448860,92.228722 85.822197,92.678085 
	C85.672646,92.778221 85.339027,92.572899 85.037857,92.154259 
z"/>
<path fill="#475B6D" opacity="1.000000" stroke="none" 
	d="
M107.017700,140.024902 
	C108.730392,139.072815 110.312630,138.445267 112.297829,137.459396 
	C113.106750,137.116882 113.512718,137.132675 113.950851,137.511505 
	C114.568336,138.443253 115.084938,139.396210 115.750664,139.515259 
	C118.918091,140.081711 122.126099,140.421234 125.319664,140.841507 
	C125.303474,141.437622 125.287285,142.033752 124.836777,142.857391 
	C123.968971,143.087341 123.535477,143.089783 123.101990,143.092224 
	C122.281456,143.240341 121.460915,143.388443 120.640381,143.536545 
	C120.464363,143.165054 120.288345,142.793564 120.112328,142.422073 
	C117.607933,145.528671 115.103531,148.635254 112.727402,151.582748 
	C112.417755,148.444214 111.047882,145.113083 106.887253,145.841187 
	C106.887253,143.853012 106.887253,142.101242 107.017700,140.024902 
z"/>
<path fill="#271B1D" opacity="1.000000" stroke="none" 
	d="
M130.699036,125.019455 
	C133.803741,122.676971 136.908447,120.334480 140.476044,118.353821 
	C140.997726,120.896202 141.056534,123.076736 141.115341,125.257278 
	C138.558670,127.395744 136.001999,129.534225 132.903961,131.897827 
	C132.005386,132.432938 131.648163,132.742935 131.290939,133.052917 
	C131.290939,133.052917 131.142883,133.126617 130.735916,133.075821 
	C130.452301,130.356506 130.575668,127.687981 130.699036,125.019455 
z"/>
<path fill="#5B2421" opacity="1.000000" stroke="none" 
	d="
M141.507141,125.145668 
	C141.056534,123.076736 140.997726,120.896202 140.823303,118.349731 
	C141.250885,116.728554 141.794067,115.473305 142.629395,114.012283 
	C145.116852,115.450020 147.309326,117.097382 149.509232,118.734718 
	C150.175659,119.230713 150.862686,119.698997 151.540268,120.179977 
	C150.784180,120.674202 150.028091,121.168427 148.792236,122.005714 
	C147.258408,123.212288 146.204361,124.075798 145.150314,124.939301 
	C144.066513,124.970886 142.982727,125.002472 141.507141,125.145668 
z"/>
<path fill="#835543" opacity="1.000000" stroke="none" 
	d="
M145.311493,125.224197 
	C146.204361,124.075798 147.258408,123.212288 148.589417,122.262947 
	C151.389130,123.704025 153.911896,125.230934 156.736099,126.975243 
	C155.139038,128.009842 153.240540,128.827057 151.105194,129.838959 
	C149.069794,128.525452 147.271225,127.017265 145.311493,125.224197 
z"/>
<path fill="#271B1D" opacity="1.000000" stroke="none" 
	d="
M126.002449,136.979248 
	C125.956657,137.153610 125.910866,137.327988 125.397812,137.719879 
	C121.616745,137.327347 118.302940,136.717285 114.999626,135.792603 
	C115.040352,135.060379 115.070595,134.642792 115.129776,134.179306 
	C115.158714,134.133423 115.240776,134.062485 115.578743,134.006363 
	C119.208771,132.640198 122.500824,131.330154 125.708855,130.372620 
	C125.750702,132.809845 125.876579,134.894547 126.002449,136.979248 
z"/>
<path fill="#835543" opacity="1.000000" stroke="none" 
	d="
M126.362267,136.925125 
	C125.876579,134.894547 125.750702,132.809845 125.811935,130.039215 
	C126.668404,127.882545 127.337761,126.411819 128.007111,124.941093 
	C128.683075,124.952530 129.359055,124.963959 130.367035,124.997421 
	C130.575668,127.687981 130.452301,130.356506 130.674667,133.131378 
	C129.587616,134.448822 128.154846,135.659912 126.362267,136.925125 
z"/>
<path fill="#5A473F" opacity="1.000000" stroke="none" 
	d="
M123.070465,143.487518 
	C123.535477,143.089783 123.968971,143.087341 124.728119,143.101501 
	C125.280693,147.820129 125.507614,152.522186 125.503639,157.524689 
	C124.521088,156.709839 123.215271,155.638947 123.121643,154.470886 
	C122.840378,150.961868 123.031891,147.414948 123.070465,143.487518 
z"/>
<path fill="#835543" opacity="1.000000" stroke="none" 
	d="
M147.033356,146.325989 
	C147.895370,142.652710 148.788910,139.342972 150.018234,134.789459 
	C153.161026,141.154800 151.264816,146.385284 147.033356,146.325989 
z"/>
<path fill="#394754" opacity="1.000000" stroke="none" 
	d="
M114.989136,136.107224 
	C118.302940,136.717285 121.616745,137.327347 125.293732,137.969482 
	C125.575401,138.755035 125.493889,139.508499 125.366020,140.551743 
	C122.126099,140.421234 118.918091,140.081711 115.750664,139.515259 
	C115.084938,139.396210 114.568336,138.443253 114.172638,137.381042 
	C114.571220,136.627441 114.780182,136.367325 114.989136,136.107224 
z"/>
<path fill="#835543" opacity="1.000000" stroke="none" 
	d="
M131.545654,133.041504 
	C131.648163,132.742935 132.005386,132.432938 132.623779,132.102356 
	C132.523422,132.397873 132.161896,132.713974 131.545654,133.041504 
z"/>
<path fill="#BF8A29" opacity="1.000000" stroke="none" 
	d="
M100.091934,154.594299 
	C98.102028,156.333923 96.236778,157.983444 94.064484,158.693176 
	C93.502480,158.876785 91.977875,156.114090 90.843567,154.323349 
	C93.271561,151.603409 95.751411,149.264893 98.575211,146.850220 
	C99.313507,149.234055 99.707848,151.694077 100.091934,154.594299 
z"/>
<path fill="#475B6D" opacity="1.000000" stroke="none" 
	d="
M100.473618,140.048340 
	C100.635040,137.039581 101.695999,135.810333 104.040619,139.317032 
	C103.034531,139.745560 101.956123,139.878586 100.473618,140.048340 
z"/>
<path fill="#475B6D" opacity="1.000000" stroke="none" 
	d="
M71.197861,132.001343 
	C70.858757,131.970291 70.948631,131.491974 70.997597,131.253510 
	C73.466759,129.322311 75.886963,127.629601 78.956390,126.095322 
	C84.735481,129.174423 89.865349,132.095108 94.995209,135.015793 
	C93.574173,136.620117 92.153145,138.224442 90.518539,140.069901 
	C87.326752,136.135361 84.660995,132.849258 81.995239,129.563156 
	C81.665855,129.720596 81.336472,129.878052 81.007095,130.035507 
	C82.630707,133.768402 84.254326,137.501312 85.877945,141.234222 
	C85.520538,141.423965 85.163139,141.613708 84.805740,141.803436 
	C82.236801,137.971985 79.667870,134.140533 76.871353,129.969650 
	C77.981354,137.424225 79.009712,144.330505 80.019226,151.618271 
	C80.000381,151.999756 79.988884,152.014160 79.988884,152.014160 
	C79.371513,153.000931 78.754150,153.987686 77.579079,155.865860 
	C76.657532,151.977203 75.598961,148.520401 75.066895,144.984375 
	C74.522255,141.364899 74.636993,137.647476 74.123581,134.020996 
	C74.014633,133.251480 72.437607,132.689804 71.197861,132.001343 
z"/>
<path fill="#100B0D" opacity="1.000000" stroke="none" 
	d="
M95.245132,134.787872 
	C89.865349,132.095108 84.735481,129.174423 79.316238,126.045830 
	C77.353119,124.119667 75.679382,122.401428 74.000153,120.338898 
	C75.668457,119.841309 77.339592,119.644417 79.016495,119.542259 
	C86.162987,119.106926 90.164986,124.049217 94.661621,128.782227 
	C95.113342,130.841141 95.304199,132.700531 95.245132,134.787872 
z"/>
<path fill="#271B1D" opacity="1.000000" stroke="none" 
	d="
M96.307526,126.141251 
	C96.042404,125.701118 96.065308,125.498985 96.452469,125.120049 
	C98.854950,126.659706 100.893173,128.376160 103.090530,130.391083 
	C105.515457,132.429672 107.781242,134.169769 110.028671,135.912872 
	C110.010300,135.915863 109.983253,135.940720 109.983253,135.940720 
	C99.743996,136.319031 98.800537,135.645218 96.307526,126.141251 
z"/>
<path fill="#363034" opacity="1.000000" stroke="none" 
	d="
M114.999619,135.792603 
	C114.780182,136.367325 114.571220,136.627441 114.140472,137.018005 
	C113.512718,137.132675 113.106750,137.116882 112.397545,137.126587 
	C111.502380,136.929932 110.910454,136.707794 110.150894,136.213196 
	C109.983253,135.940720 110.010300,135.915863 110.373428,135.916168 
	C112.191322,135.352707 113.646072,134.788956 115.100830,134.225189 
	C115.070595,134.642792 115.040352,135.060379 114.999619,135.792603 
z"/>
<path fill="#475B6D" opacity="1.000000" stroke="none" 
	d="
M80.538116,140.559509 
	C80.473419,140.600800 80.602821,140.518219 80.538116,140.559509 
z"/>
<path fill="#475B6D" opacity="1.000000" stroke="none" 
	d="
M81.535416,142.552307 
	C81.476578,142.588745 81.594246,142.515869 81.535416,142.552307 
z"/>
<path fill="#475B6D" opacity="1.000000" stroke="none" 
	d="
M80.007721,151.993896 
	C80.137596,152.139221 80.260124,152.290390 80.382660,152.441559 
	C80.290024,152.393951 80.197388,152.346329 80.046814,152.156433 
	C79.988884,152.014160 80.000381,151.999756 80.007721,151.993896 
z"/>
<path fill="#100B0D" opacity="1.000000" stroke="none" 
	d="
M101.973251,42.310051 
	C102.137413,41.083168 102.324898,40.202614 102.784218,39.106415 
	C104.778923,39.262863 106.501793,39.634964 108.605400,40.019592 
	C111.709572,39.677876 114.433006,39.323639 117.242943,38.958149 
	C118.641174,40.075718 120.405212,41.485676 122.169258,42.895634 
	C122.703629,42.571613 123.237999,42.247593 123.772369,41.923573 
	C123.610626,44.241261 123.448875,46.558949 123.330460,48.255711 
	C125.526031,50.616055 127.414909,52.646694 129.479340,54.866062 
	C130.916229,54.288887 132.549820,53.632702 134.962219,52.981987 
	C136.814590,52.991249 137.888107,52.995045 138.961639,52.998840 
	C138.961639,53.442860 138.961639,53.886879 138.643372,54.689087 
	C137.715149,55.438759 137.105240,55.830238 135.698090,56.733429 
	C137.452866,56.860321 138.230087,56.916527 139.007324,56.972733 
	C139.007324,56.972733 139.071030,57.444088 139.055069,57.967491 
	C139.051270,58.681164 139.063446,58.871441 139.075607,59.061714 
	C138.624405,59.677269 138.253616,60.740517 137.709396,60.838284 
	C132.911880,61.700184 132.539398,64.348946 133.935349,68.447906 
	C134.543488,70.233612 133.816528,72.473999 133.357208,74.398895 
	C132.991928,73.895737 132.965347,73.501579 132.988892,72.791771 
	C132.663635,72.039421 132.288239,71.602722 131.886536,71.143951 
	C131.860245,71.121872 131.842514,71.055511 131.952255,70.671265 
	C130.079086,66.075073 128.634232,61.466599 125.924767,57.790104 
	C124.107536,55.324280 120.497314,54.179825 117.486427,52.369423 
	C117.283516,52.294701 116.880882,52.136879 116.796921,51.825527 
	C115.034828,49.384922 113.993706,49.931896 113.350700,52.332508 
	C113.313957,52.359264 113.260384,52.432713 112.880997,52.331196 
	C108.360443,53.522934 104.219284,54.816193 100.071640,55.703445 
	C99.720757,53.204052 99.376358,51.110657 99.031960,49.017258 
	C99.790085,48.999210 100.548210,48.981163 102.009254,49.109520 
	C104.060928,49.079727 105.409683,48.903526 106.758438,48.727329 
	C105.875847,48.041813 104.993248,47.356293 104.110657,46.670776 
	C103.405960,45.332645 102.701271,43.994511 101.973251,42.310051 
z"/>
<path fill="#271B1D" opacity="1.000000" stroke="none" 
	d="
M139.206573,52.834923 
	C137.888107,52.995045 136.814590,52.991249 135.335663,52.965405 
	C135.453445,52.024757 135.976624,51.106159 136.767517,50.067871 
	C137.840652,50.855785 138.646072,51.763393 139.206573,52.834923 
z"/>
<path fill="#5A473F" opacity="1.000000" stroke="none" 
	d="
M122.570793,39.524780 
	C122.598915,38.777306 122.862320,38.238316 123.125732,37.699333 
	C123.605820,38.076950 124.085907,38.454567 124.566002,38.832184 
	C123.979362,39.132542 123.392723,39.432903 122.570793,39.524780 
z"/>
<path fill="#5A473F" opacity="1.000000" stroke="none" 
	d="
M119.529526,36.434082 
	C119.582634,35.969456 119.813072,35.686874 120.043510,35.404293 
	C120.224297,35.592945 120.405075,35.781597 120.585854,35.970253 
	C120.292854,36.185547 119.999855,36.400841 119.529526,36.434082 
z"/>
<path fill="#100B0D" opacity="1.000000" stroke="none" 
	d="
M70.210999,117.652664 
	C70.953423,117.517731 71.701637,117.701355 72.725784,118.020538 
	C73.001717,118.156097 72.987846,118.582993 72.999016,118.796288 
	C72.079056,118.663460 71.147919,118.317337 70.210999,117.652664 
z"/>
<path fill="#100B0D" opacity="1.000000" stroke="none" 
	d="
M73.065979,119.235619 
	C73.267097,119.169159 73.545769,119.350708 73.915314,119.769073 
	C73.718643,119.831802 73.431084,119.657722 73.065979,119.235619 
z"/>
<path fill="#CEA997" opacity="1.000000" stroke="none" 
	d="
M132.938782,73.107422 
	C132.965347,73.501579 132.991928,73.895737 133.064529,74.580795 
	C132.481583,78.188881 131.852615,81.506065 131.538773,85.040024 
	C131.853897,85.256790 131.857742,85.595528 131.845917,85.764206 
	C131.150665,87.002640 130.467255,88.072395 129.844238,89.479706 
	C129.904648,89.817261 129.789627,89.780998 129.434967,89.731781 
	C124.932854,85.038933 123.718506,85.022438 120.723389,89.382896 
	C118.893845,88.559212 116.144905,87.809296 116.189972,87.313164 
	C116.499352,83.906944 113.877602,84.824867 112.289528,84.285782 
	C110.889526,83.810547 109.455589,83.435265 107.995087,82.738052 
	C107.922928,82.275719 107.892319,82.091179 108.274734,81.927353 
	C110.447655,81.948067 112.207535,81.948067 113.410378,81.948067 
	C113.128830,78.685822 112.875618,75.751831 112.909637,73.028748 
	C113.605942,73.179703 114.015007,73.119751 114.620537,73.379211 
	C115.548737,73.818474 116.280472,73.938332 117.064285,74.354790 
	C117.391518,74.940865 117.666679,75.230347 118.057159,75.691551 
	C118.172493,75.863274 118.543877,76.044655 118.543877,76.044655 
	C118.543877,76.044655 118.956993,76.032555 119.288124,76.125839 
	C120.296356,76.334625 120.973450,76.450119 121.854370,76.693344 
	C122.492798,76.689842 122.927414,76.558594 123.573128,76.398888 
	C123.784225,76.370430 124.173813,76.198059 124.486099,76.016083 
	C125.836296,72.309959 127.991379,70.432663 131.842514,71.055511 
	C131.842514,71.055511 131.860245,71.121872 131.886017,71.427193 
	C132.254105,72.190819 132.596451,72.649124 132.938782,73.107422 
z"/>
<path fill="#271B1D" opacity="1.000000" stroke="none" 
	d="
M139.011932,56.643112 
	C138.230087,56.916527 137.452866,56.860321 135.698090,56.733429 
	C137.105240,55.830238 137.715149,55.438759 138.634659,55.022007 
	C138.968338,55.435658 138.992432,55.874573 139.011932,56.643112 
z"/>
<path fill="#271B1D" opacity="1.000000" stroke="none" 
	d="
M139.374680,59.051762 
	C139.063446,58.871441 139.051270,58.681164 139.065582,58.205078 
	C139.797745,57.999001 140.503433,58.078728 141.209137,58.158459 
	C141.215759,58.335278 141.222397,58.512096 141.229019,58.688915 
	C140.710587,58.806545 140.192169,58.924179 139.374680,59.051762 
z"/>
<path fill="#363034" opacity="1.000000" stroke="none" 
	d="
M98.956192,48.657257 
	C99.376358,51.110657 99.720757,53.204052 100.074265,56.052040 
	C99.337090,58.227577 98.590805,59.648521 97.844513,61.069462 
	C96.009506,57.580807 94.174507,54.092152 92.374298,50.669659 
	C92.972755,49.973278 93.956352,48.828739 94.938202,47.342522 
	C96.251106,47.432972 97.565765,47.865112 98.956192,48.657257 
z"/>
<path fill="#363034" opacity="1.000000" stroke="none" 
	d="
M103.793846,46.797501 
	C104.993248,47.356293 105.875847,48.041813 106.758438,48.727329 
	C105.409683,48.903526 104.060928,49.079727 102.387756,49.086948 
	C102.534576,48.253387 103.005806,47.588806 103.793846,46.797501 
z"/>
<path fill="#271B1D" opacity="1.000000" stroke="none" 
	d="
M82.592728,53.986588 
	C84.152893,56.758324 85.505524,59.491375 86.421654,62.363651 
	C86.721565,63.303909 85.887054,64.606003 85.269272,65.873085 
	C80.843819,65.951439 79.743828,62.759068 79.595398,59.761646 
	C79.502708,57.889622 81.278198,55.925091 82.592728,53.986588 
z"/>
<path fill="#271B1D" opacity="1.000000" stroke="none" 
	d="
M99.014717,38.990265 
	C99.155518,39.432213 99.278114,39.888268 99.400711,40.344326 
	C99.265320,40.070869 99.129936,39.797409 98.978889,39.280144 
	C98.963226,39.036331 98.996506,39.004368 99.014717,38.990265 
z"/>
<path fill="#835543" opacity="1.000000" stroke="none" 
	d="
M115.129776,134.179306 
	C113.646072,134.788956 112.191322,135.352707 110.391800,135.913177 
	C107.781242,134.169769 105.515457,132.429672 103.144890,130.034637 
	C103.629326,128.304245 104.218536,127.228790 104.975494,125.847160 
	C106.103577,126.882782 106.837265,127.515442 107.524902,128.194717 
	C110.456078,131.090302 113.158241,130.496246 114.614044,126.657402 
	C115.709564,123.768608 116.863594,120.902008 118.107254,117.766037 
	C118.523575,117.024605 118.824226,116.542656 119.454361,116.006393 
	C121.168663,114.337013 122.553490,112.721939 124.260300,111.034103 
	C125.095108,110.581055 125.607941,110.200768 126.120773,109.820480 
	C127.858856,110.815277 129.596939,111.810059 131.631348,113.271744 
	C130.595337,116.477173 129.262985,119.215714 127.930649,121.954247 
	C127.930649,121.954247 127.974327,121.979919 127.653450,122.107834 
	C124.756104,124.496414 122.103783,126.677841 119.630318,129.046097 
	C118.031670,130.576721 116.694901,132.380890 115.240768,134.062485 
	C115.240776,134.062485 115.158714,134.133423 115.129776,134.179306 
z"/>
<path fill="#835543" opacity="1.000000" stroke="none" 
	d="
M121.096848,89.574097 
	C123.718506,85.022438 124.932854,85.038933 129.388809,89.770599 
	C128.789429,96.250557 127.881523,102.642471 126.480499,108.742508 
	C125.781311,105.820930 125.575226,103.191231 125.408234,101.060387 
	C123.621346,101.649368 121.727028,102.273766 119.642120,102.647537 
	C118.052422,101.199364 116.653320,100.001801 115.165939,98.454048 
	C113.104225,97.477928 111.130791,96.852005 108.819809,96.166367 
	C107.595627,96.017334 106.708992,95.928001 105.710388,95.827393 
	C106.121002,94.865715 106.370155,94.282196 106.830063,93.538422 
	C107.360184,93.237556 107.679543,93.096970 108.334312,93.024185 
	C108.885406,93.166351 109.101089,93.240707 109.212990,93.666077 
	C111.293427,95.759956 113.250824,95.983025 115.112411,93.106415 
	C115.951714,93.065514 116.434410,93.092636 117.138214,93.310272 
	C118.857285,92.431862 122.718147,93.612007 121.096848,89.574097 
z"/>
<path fill="#5B2421" opacity="1.000000" stroke="none" 
	d="
M119.832718,102.898155 
	C121.727028,102.273766 123.621346,101.649368 125.408234,101.060387 
	C125.575226,103.191231 125.781311,105.820930 126.062256,108.842865 
	C126.137115,109.235107 126.123528,109.527382 126.122147,109.673935 
	C125.607941,110.200768 125.095108,110.581055 123.924789,111.041412 
	C121.886482,112.767891 120.505676,114.414291 119.124878,116.060699 
	C118.824226,116.542656 118.523575,117.024605 117.695862,117.763763 
	C115.796364,118.043137 114.423920,118.065300 112.982925,117.742195 
	C111.801964,116.626671 110.689537,115.856407 109.576057,115.084808 
	C110.059875,114.107384 110.544754,113.131302 111.071701,112.130844 
	C111.113762,112.106468 111.170105,112.027229 111.488304,111.970543 
	C112.233253,111.002731 112.660011,110.091614 113.453728,109.132950 
	C115.451866,108.260193 117.092072,107.450699 118.675400,106.542114 
	C118.728882,106.511444 118.209503,105.482491 118.087952,104.671364 
	C118.756744,103.915291 119.294731,103.406723 119.832718,102.898155 
z"/>
<path fill="#271B1D" opacity="1.000000" stroke="none" 
	d="
M128.290619,121.951500 
	C129.262985,119.215714 130.595337,116.477173 131.947159,113.385925 
	C132.100052,112.737106 132.272446,112.452194 132.361145,112.143250 
	C134.489426,104.729202 134.628479,104.687897 140.773712,109.971497 
	C136.937546,114.082664 132.794083,118.015709 128.290619,121.951500 
z"/>
<path fill="#363034" opacity="1.000000" stroke="none" 
	d="
M115.578735,134.006363 
	C116.694901,132.380890 118.031670,130.576721 119.630318,129.046097 
	C122.103783,126.677841 124.756104,124.496414 127.636070,122.098801 
	C127.961578,122.707031 127.983597,123.452202 128.006363,124.569237 
	C127.337761,126.411819 126.668404,127.882545 125.895966,129.686691 
	C122.500824,131.330154 119.208771,132.640198 115.578735,134.006363 
z"/>
<path fill="#5A473F" opacity="1.000000" stroke="none" 
	d="
M106.619308,93.698685 
	C106.370155,94.282196 106.121002,94.865715 105.710388,95.827393 
	C106.708992,95.928001 107.595627,96.017334 108.561905,96.355774 
	C107.849167,96.969002 107.056770,97.333122 105.822083,97.900482 
	C107.563988,99.141518 108.828316,100.042297 110.010696,101.332542 
	C108.201202,102.268600 106.473656,102.815193 104.459259,103.323517 
	C103.788918,103.245834 103.405441,103.206413 102.835785,102.883224 
	C100.258896,102.328140 97.868179,102.056824 94.904793,101.720512 
	C95.218948,103.116348 95.521797,104.461952 95.847923,106.231384 
	C95.884087,107.787148 95.896973,108.919083 95.875229,110.263855 
	C95.840599,110.476677 95.734894,110.894775 95.734894,110.894775 
	C94.697205,111.004959 93.659508,111.115143 92.372070,111.126320 
	C91.436218,104.254684 90.750130,97.482056 90.466858,90.331985 
	C92.090027,88.697639 93.310364,87.440735 94.747284,85.960754 
	C96.845230,87.047859 99.028603,88.179237 100.982559,89.561272 
	C100.417580,91.206459 100.082016,92.600975 99.746445,93.995499 
	C100.926559,94.108856 102.111717,94.347076 103.285324,94.299606 
	C104.402924,94.254395 105.508469,93.910988 106.619308,93.698685 
z"/>
<path fill="#5A473F" opacity="1.000000" stroke="none" 
	d="
M113.051468,118.087448 
	C114.423920,118.065300 115.796364,118.043137 117.580193,118.023254 
	C116.863594,120.902008 115.709564,123.768608 114.614044,126.657402 
	C113.158241,130.496246 110.456078,131.090302 107.524902,128.194717 
	C106.837265,127.515442 106.103577,126.882782 104.975494,125.847160 
	C104.218536,127.228790 103.629326,128.304245 102.985756,129.736145 
	C100.893173,128.376160 98.854950,126.659706 96.503830,124.819252 
	C97.462105,122.654556 98.733276,120.613861 100.154480,118.332314 
	C104.604973,119.573799 105.773170,129.619644 113.990105,123.804108 
	C112.385284,123.166359 111.425697,122.785027 110.205437,122.300102 
	C110.866280,121.318443 111.390106,120.540306 112.079422,119.216934 
	C112.513756,118.476952 112.782616,118.282204 113.051468,118.087448 
z"/>
<path fill="#100B0D" opacity="1.000000" stroke="none" 
	d="
M103.021957,103.166992 
	C103.405441,103.206413 103.788918,103.245834 104.645973,103.663422 
	C109.398743,104.334000 113.677940,104.626427 117.957138,104.918854 
	C118.209503,105.482491 118.728882,106.511444 118.675400,106.542114 
	C117.092072,107.450699 115.451866,108.260193 113.112289,109.083511 
	C109.516983,109.026543 110.278023,110.499443 111.170105,112.027229 
	C111.170105,112.027229 111.113762,112.106468 110.651428,112.086380 
	C107.124474,110.827782 104.059868,109.589279 100.995255,108.350769 
	C101.743271,111.132339 102.890823,113.230278 98.961678,113.056046 
	C98.646294,112.940445 98.384712,112.750679 98.036415,111.940559 
	C97.233887,110.946594 96.571869,110.498810 95.909859,110.051025 
	C95.896973,108.919083 95.884087,107.787148 96.269394,106.281235 
	C97.780090,105.936020 98.892601,105.964783 100.049728,106.142090 
	C100.184044,106.343567 100.273727,106.396500 100.363419,106.449425 
	C100.240318,106.301125 100.117210,106.152824 100.149353,105.742966 
	C101.210388,104.709930 102.116165,103.938461 103.021957,103.166992 
z"/>
<path fill="#271B1D" opacity="1.000000" stroke="none" 
	d="
M82.131958,111.374802 
	C82.788208,107.558334 85.111153,105.987907 88.588943,105.717422 
	C88.905083,107.788498 89.195938,109.693985 89.779755,111.863464 
	C91.159363,115.156631 92.246025,118.185806 93.530685,121.766922 
	C88.401550,119.693115 84.963264,116.133018 82.131958,111.374802 
z"/>
<path fill="#271B1D" opacity="1.000000" stroke="none" 
	d="
M99.119705,113.358643 
	C102.890823,113.230278 101.743271,111.132339 100.995255,108.350769 
	C104.059868,109.589279 107.124474,110.827782 110.609360,112.110748 
	C110.544754,113.131302 110.059875,114.107384 109.576057,115.084808 
	C110.689537,115.856407 111.801964,116.626671 112.982925,117.742188 
	C112.782616,118.282204 112.513756,118.476952 112.131256,118.900375 
	C107.054886,118.974937 102.342278,118.238052 99.119705,113.358643 
z"/>
<path fill="#271B1D" opacity="1.000000" stroke="none" 
	d="
M95.875229,110.263855 
	C96.571869,110.498810 97.233887,110.946594 97.915009,111.727921 
	C97.344063,111.839012 96.754021,111.616554 95.949432,111.144432 
	C95.734894,110.894775 95.840599,110.476677 95.875229,110.263855 
z"/>
<path fill="#271B1D" opacity="1.000000" stroke="none" 
	d="
M96.036125,66.080292 
	C96.045425,65.865944 96.054733,65.651604 96.469788,65.201859 
	C98.579544,65.245064 100.283562,65.523674 102.366997,65.847282 
	C105.424751,67.611076 108.103088,69.329865 110.537941,71.134293 
	C109.819153,71.727768 109.343842,72.235596 108.570045,72.943756 
	C107.087593,73.880318 105.903618,74.616562 104.348236,75.253616 
	C102.690697,75.173683 101.404556,75.192947 99.772537,75.132431 
	C97.645180,75.018211 95.863708,74.983772 94.019882,74.555328 
	C93.180458,68.742928 99.474655,71.427536 101.071259,68.024597 
	C99.244003,67.319008 97.640068,66.699646 96.036125,66.080292 
z"/>
<path fill="#835543" opacity="1.000000" stroke="none" 
	d="
M101.987572,65.802284 
	C100.283562,65.523674 98.579544,65.245064 96.509476,64.882492 
	C96.714211,63.764725 97.285004,62.730927 97.850159,61.383293 
	C98.590805,59.648521 99.337090,58.227577 100.080750,56.458042 
	C104.219284,54.816193 108.360443,53.522934 112.812668,52.659206 
	C110.930519,54.439293 108.857147,56.066666 106.517700,57.079430 
	C102.389320,58.866627 100.733841,61.727711 101.987572,65.802284 
z"/>
<path fill="#5A473F" opacity="1.000000" stroke="none" 
	d="
M95.695251,66.097687 
	C97.640068,66.699646 99.244003,67.319008 101.071259,68.024597 
	C99.474655,71.427536 93.180458,68.742928 93.658218,74.564667 
	C92.609489,74.074829 91.860069,73.181625 91.201363,71.914894 
	C91.486458,70.056465 91.680824,68.571579 92.150627,66.974991 
	C92.948822,66.584625 93.471581,66.305939 93.994331,66.027252 
	C94.447685,66.056534 94.901031,66.085808 95.695251,66.097687 
z"/>
<path fill="#C2C7D6" opacity="1.000000" stroke="none" 
	d="
M91.875191,67.086685 
	C91.680824,68.571579 91.486458,70.056465 90.865952,71.988861 
	C90.396484,74.006805 90.379417,75.578514 90.303329,77.147362 
	C90.204300,79.188812 90.058395,81.228004 89.932671,83.268166 
	C89.183907,80.451363 88.435150,77.634567 87.584976,74.393578 
	C88.386696,71.636177 89.289818,69.302971 90.802971,66.978333 
	C91.412994,66.986908 91.875191,67.086685 91.875191,67.086685 
z"/>
<path fill="#271B1D" opacity="1.000000" stroke="none" 
	d="
M92.150627,66.974991 
	C91.875191,67.086685 91.412994,66.986908 91.192993,66.900162 
	C91.263229,65.997940 91.553467,65.182457 91.843704,64.366974 
	C92.469742,64.723846 93.095787,65.080719 93.858078,65.732422 
	C93.471581,66.305939 92.948822,66.584625 92.150627,66.974991 
z"/>
<path fill="#835543" opacity="1.000000" stroke="none" 
	d="
M89.940842,83.682480 
	C90.058395,81.228004 90.204300,79.188812 90.303329,77.147362 
	C90.379417,75.578514 90.396484,74.006805 90.775223,72.362396 
	C91.860069,73.181625 92.609489,74.074829 93.720573,74.958679 
	C95.863708,74.983772 97.645180,75.018211 99.701881,75.506210 
	C97.838509,76.918610 95.699913,77.877457 93.064705,79.058968 
	C93.874199,80.519470 94.442070,82.562408 95.777206,83.721710 
	C97.949402,85.607826 100.623337,86.916115 102.906387,88.664574 
	C102.222160,89.010780 101.717072,89.160690 101.211975,89.310608 
	C99.028603,88.179237 96.845230,87.047859 94.747284,85.960754 
	C93.310364,87.440735 92.090027,88.697639 90.495453,89.931091 
	C90.121231,89.907631 89.999535,89.515938 89.951950,89.317245 
	C89.919243,87.444641 89.934128,85.770714 89.940842,83.682480 
z"/>
<path fill="#CEA997" opacity="1.000000" stroke="none" 
	d="
M102.366997,65.847282 
	C100.733841,61.727711 102.389320,58.866627 106.517700,57.079430 
	C108.857147,56.066666 110.930519,54.439293 113.192055,52.760723 
	C113.260384,52.432713 113.313957,52.359264 113.697716,52.357872 
	C115.014610,52.283279 115.947746,52.210079 116.880882,52.136879 
	C116.880882,52.136879 117.283516,52.294701 117.569298,52.693432 
	C119.229706,54.905735 120.692345,56.659985 121.962303,58.544102 
	C125.650612,64.016060 125.527229,64.434784 119.546951,67.682770 
	C118.807114,67.875008 118.382950,67.973755 117.806381,67.694885 
	C117.782623,66.797295 117.911270,66.277321 118.015152,65.401680 
	C117.667053,62.375080 117.343735,59.704144 116.925896,56.252457 
	C112.236946,58.773804 108.723297,60.663170 105.209648,62.552536 
	C105.197945,63.026394 105.186249,63.500248 105.174545,63.974106 
	C108.154793,64.681366 111.135040,65.388626 114.163017,66.329048 
	C114.210747,66.562210 114.092834,67.023361 113.756210,67.006355 
	C113.012955,67.672302 112.606323,68.355247 112.129578,69.383850 
	C112.013016,70.198364 111.966545,70.667244 111.633720,71.136345 
	C111.158707,71.107262 110.970062,71.077957 110.781418,71.048660 
	C108.103088,69.329865 105.424751,67.611076 102.366997,65.847282 
z"/>
<path fill="#835543" opacity="1.000000" stroke="none" 
	d="
M119.862625,67.589287 
	C125.527229,64.434784 125.650612,64.016060 121.962303,58.544102 
	C120.692345,56.659985 119.229706,54.905735 117.772209,52.768150 
	C120.497314,54.179825 124.107536,55.324280 125.924767,57.790104 
	C128.634232,61.466599 130.079086,66.075073 131.952255,70.671265 
	C127.991379,70.432663 125.836296,72.309959 124.419388,75.658188 
	C123.402992,74.670296 122.765594,73.858315 122.211792,72.775497 
	C121.525360,71.669746 120.755310,70.834839 120.029243,69.782166 
	C120.073219,69.564392 120.127525,69.123383 120.307404,68.948471 
	C120.279068,68.378807 120.070847,67.984047 119.862625,67.589287 
z"/>
<path fill="#835543" opacity="1.000000" stroke="none" 
	d="
M116.796921,51.825527 
	C115.947746,52.210079 115.014610,52.283279 113.734459,52.331116 
	C113.993706,49.931896 115.034828,49.384922 116.796921,51.825527 
z"/>
<path fill="#835543" opacity="1.000000" stroke="none" 
	d="
M132.988892,72.791771 
	C132.596451,72.649124 132.254105,72.190819 131.912308,71.449272 
	C132.288239,71.602722 132.663635,72.039421 132.988892,72.791771 
z"/>
<path fill="#271B1D" opacity="1.000000" stroke="none" 
	d="
M100.982559,89.561272 
	C101.717072,89.160690 102.222160,89.010780 103.295944,88.560265 
	C104.251198,86.852242 104.637772,85.444832 105.329285,83.943298 
	C106.435036,83.571411 107.235832,83.293633 108.036636,83.015854 
	C109.455589,83.435265 110.889526,83.810547 112.289528,84.285782 
	C113.877602,84.824867 116.499352,83.906944 116.189972,87.313164 
	C116.144905,87.809296 118.893845,88.559212 120.723389,89.382896 
	C122.718147,93.612007 118.857285,92.431862 117.103088,92.938492 
	C115.301407,91.905960 113.755966,91.435738 111.990898,90.757439 
	C111.204727,91.019470 110.638191,91.489578 109.771454,91.988739 
	C108.980469,92.330658 108.489685,92.643524 107.998901,92.956383 
	C107.679543,93.096970 107.360184,93.237556 106.830063,93.538422 
	C105.508469,93.910988 104.402924,94.254395 103.285324,94.299606 
	C102.111717,94.347076 100.926559,94.108856 99.746445,93.995499 
	C100.082016,92.600975 100.417580,91.206459 100.982559,89.561272 
z"/>
<path fill="#C2C7D6" opacity="1.000000" stroke="none" 
	d="
M110.537941,71.134293 
	C110.970062,71.077957 111.158707,71.107262 111.803268,71.301544 
	C112.380257,71.916954 112.501335,72.367393 112.622406,72.817841 
	C112.875618,75.751831 113.128830,78.685822 113.410378,81.948067 
	C112.207535,81.948067 110.447655,81.948067 108.169807,81.530090 
	C108.057411,78.322556 108.462967,75.532990 108.868530,72.743431 
	C109.343842,72.235596 109.819153,71.727768 110.537941,71.134293 
z"/>
<path fill="#835543" opacity="1.000000" stroke="none" 
	d="
M108.570038,72.943756 
	C108.462967,75.532990 108.057411,78.322556 107.756775,81.509369 
	C107.892319,82.091179 107.922928,82.275719 107.995087,82.738052 
	C107.235832,83.293633 106.435036,83.571411 105.310028,83.498940 
	C104.897095,80.550064 104.808372,77.951431 104.719643,75.352798 
	C105.903618,74.616562 107.087593,73.880318 108.570038,72.943756 
z"/>
<path fill="#5B2421" opacity="1.000000" stroke="none" 
	d="
M112.909645,73.028748 
	C112.501335,72.367393 112.380257,71.916954 112.089630,71.301315 
	C111.966545,70.667244 112.013016,70.198364 112.415680,69.374718 
	C113.152542,68.996872 113.533211,68.973808 114.300667,68.958420 
	C115.202995,68.951157 115.718536,68.936218 116.488007,68.895729 
	C117.081398,68.887665 117.420853,68.905151 118.154221,68.958054 
	C119.074593,69.036774 119.601059,69.080078 120.127525,69.123383 
	C120.127525,69.123383 120.073219,69.564392 119.679016,69.784485 
	C118.469238,70.618210 117.653671,71.231834 116.540100,72.017960 
	C115.636086,72.480232 115.030083,72.770020 114.424072,73.059799 
	C114.015007,73.119751 113.605942,73.179703 112.909645,73.028748 
z"/>
<path fill="#5B2421" opacity="1.000000" stroke="none" 
	d="
M122.128189,73.046341 
	C122.765594,73.858315 123.402992,74.670296 124.107101,75.840164 
	C124.173813,76.198059 123.784225,76.370430 123.136551,76.337021 
	C122.209442,76.390930 121.929993,76.478264 121.650551,76.565605 
	C120.973450,76.450119 120.296356,76.334625 119.471352,75.837952 
	C120.211746,74.864166 121.100052,74.271553 121.993896,73.514282 
	C121.999435,73.349632 122.128189,73.046341 122.128189,73.046341 
z"/>
<path fill="#835543" opacity="1.000000" stroke="none" 
	d="
M121.988358,73.678940 
	C121.100052,74.271553 120.211746,74.864166 119.140221,75.744667 
	C118.956993,76.032555 118.543877,76.044655 118.543877,76.044655 
	C118.543877,76.044655 118.172493,75.863274 118.065285,75.297745 
	C117.964195,74.470901 117.970306,74.209579 117.964798,73.756561 
	C117.953194,73.564857 117.908707,73.183342 117.960175,72.914726 
	C118.041794,72.466286 118.071938,72.286461 118.416367,72.182404 
	C119.816559,72.731766 120.902458,73.205360 121.988358,73.678940 
z"/>
<path fill="#100B0D" opacity="1.000000" stroke="none" 
	d="
M114.620537,73.379211 
	C115.030083,72.770020 115.636086,72.480232 116.621483,72.096558 
	C117.000870,72.002670 117.158012,72.157852 117.133560,72.378540 
	C117.109108,72.599236 117.100563,73.045456 117.041405,73.192497 
	C116.982246,73.339539 116.893272,73.643776 116.840805,73.770966 
	C116.788338,73.898163 117.012207,74.058189 117.012207,74.058189 
	C116.280472,73.938332 115.548737,73.818474 114.620537,73.379211 
z"/>
<path fill="#835543" opacity="1.000000" stroke="none" 
	d="
M121.854370,76.693344 
	C121.929993,76.478264 122.209442,76.390930 122.925461,76.365479 
	C122.927414,76.558594 122.492798,76.689842 121.854370,76.693344 
z"/>
<path fill="#5A473F" opacity="1.000000" stroke="none" 
	d="
M117.976410,73.948257 
	C117.970306,74.209579 117.964195,74.470901 117.949951,75.126022 
	C117.666679,75.230347 117.391518,74.940865 117.064285,74.354790 
	C117.012207,74.058189 116.788338,73.898163 117.102211,73.883972 
	C117.602867,73.895943 117.789642,73.922104 117.976410,73.948257 
z"/>
<path fill="#5A473F" opacity="1.000000" stroke="none" 
	d="
M119.454353,116.006393 
	C120.505676,114.414291 121.886482,112.767891 123.602798,111.114182 
	C122.553490,112.721939 121.168663,114.337013 119.454353,116.006393 
z"/>
<path fill="#363034" opacity="1.000000" stroke="none" 
	d="
M118.087952,104.671356 
	C113.677940,104.626427 109.398743,104.334000 104.932831,103.701675 
	C106.473656,102.815193 108.201202,102.268600 110.299667,101.311234 
	C112.198463,100.201721 113.726349,99.502983 115.254227,98.804237 
	C116.653320,100.001801 118.052422,101.199364 119.642120,102.647537 
	C119.294731,103.406723 118.756744,103.915291 118.087952,104.671356 
z"/>
<path fill="#271B1D" opacity="1.000000" stroke="none" 
	d="
M115.165939,98.454048 
	C113.726349,99.502983 112.198463,100.201721 110.381615,100.921768 
	C108.828316,100.042297 107.563988,99.141518 105.822083,97.900482 
	C107.056770,97.333122 107.849167,96.969002 108.899460,96.415482 
	C111.130791,96.852005 113.104225,97.477928 115.165939,98.454048 
z"/>
<path fill="#5B2421" opacity="1.000000" stroke="none" 
	d="
M108.334320,93.024185 
	C108.489685,92.643524 108.980469,92.330658 110.086365,91.980370 
	C111.204483,91.617126 111.707504,91.291321 112.210526,90.965515 
	C113.755966,91.435738 115.301407,91.905960 116.881973,92.747971 
	C116.434410,93.092636 115.951714,93.065514 114.721581,93.102592 
	C112.421684,93.216217 110.869225,93.265640 109.316765,93.315063 
	C109.101089,93.240707 108.885406,93.166351 108.334320,93.024185 
z"/>
<path fill="#C2C7D6" opacity="1.000000" stroke="none" 
	d="
M109.212990,93.666077 
	C110.869225,93.265640 112.421684,93.216217 114.364975,93.170609 
	C113.250824,95.983025 111.293427,95.759956 109.212990,93.666077 
z"/>
<path fill="#271B1D" opacity="1.000000" stroke="none" 
	d="
M111.488304,111.970543 
	C110.278023,110.499443 109.516983,109.026543 112.745331,109.131042 
	C112.660011,110.091614 112.233253,111.002731 111.488304,111.970543 
z"/>
<path fill="#363034" opacity="1.000000" stroke="none" 
	d="
M100.005104,105.993546 
	C98.892601,105.964783 97.780090,105.936020 96.246124,105.857407 
	C95.521797,104.461952 95.218948,103.116348 94.904793,101.720512 
	C97.868179,102.056824 100.258896,102.328140 102.835785,102.883224 
	C102.116165,103.938461 101.210388,104.709930 100.152328,105.740669 
	C100.000046,105.999931 100.005104,105.993546 100.005104,105.993546 
z"/>
<path fill="#363034" opacity="1.000000" stroke="none" 
	d="
M99.997070,106.002228 
	C100.117210,106.152824 100.240318,106.301125 100.363419,106.449425 
	C100.273727,106.396500 100.184044,106.343567 100.049728,106.142090 
	C100.005104,105.993546 100.000046,105.999931 99.997070,106.002228 
z"/>
<path fill="#CEA997" opacity="1.000000" stroke="none" 
	d="
M104.348236,75.253609 
	C104.808372,77.951431 104.897095,80.550064 105.005081,83.593056 
	C104.637772,85.444832 104.251198,86.852242 103.475067,88.363968 
	C100.623337,86.916115 97.949402,85.607826 95.777206,83.721710 
	C94.442070,82.562408 93.874199,80.519470 93.064705,79.058968 
	C95.699913,77.877457 97.838509,76.918610 100.047760,75.585983 
	C101.404556,75.192947 102.690697,75.173683 104.348236,75.253609 
z"/>
<path fill="#C2C7D6" opacity="1.000000" stroke="none" 
	d="
M114.115288,66.095886 
	C111.135040,65.388626 108.154793,64.681366 105.174545,63.974106 
	C105.186249,63.500248 105.197945,63.026394 105.209648,62.552536 
	C108.723297,60.663170 112.236946,58.773804 116.925896,56.252457 
	C117.343735,59.704144 117.667053,62.375080 117.620300,65.431572 
	C116.205246,65.910042 115.160263,66.002960 114.115288,66.095886 
z"/>
<path fill="#271B1D" opacity="1.000000" stroke="none" 
	d="
M114.163017,66.329048 
	C115.160263,66.002960 116.205246,65.910042 117.645065,65.787231 
	C117.911270,66.277321 117.782623,66.797295 117.826500,67.670403 
	C117.999031,68.023529 118.050079,67.986076 117.797081,67.753540 
	C117.107414,67.987762 116.670738,68.454521 116.234070,68.921280 
	C115.718536,68.936218 115.202995,68.951157 114.399551,68.742523 
	C114.105377,68.020416 114.099106,67.521889 114.092834,67.023361 
	C114.092834,67.023361 114.210747,66.562210 114.163017,66.329048 
z"/>
<path fill="#5A473F" opacity="1.000000" stroke="none" 
	d="
M113.756210,67.006355 
	C114.099106,67.521889 114.105377,68.020416 114.012756,68.734848 
	C113.533211,68.973808 113.152542,68.996872 112.485779,69.029068 
	C112.606323,68.355247 113.012955,67.672302 113.756210,67.006355 
z"/>
<path fill="#271B1D" opacity="1.000000" stroke="none" 
	d="
M120.307404,68.948471 
	C119.601059,69.080078 119.074593,69.036774 118.218727,68.721466 
	C117.889328,68.449463 118.050079,67.986076 118.050079,67.986076 
	C118.050079,67.986076 117.999031,68.023529 117.978912,68.048012 
	C118.382950,67.973755 118.807114,67.875008 119.546951,67.682770 
	C120.070847,67.984047 120.279068,68.378807 120.307404,68.948471 
z"/>
<path fill="#100B0D" opacity="1.000000" stroke="none" 
	d="
M121.993896,73.514290 
	C120.902458,73.205360 119.816559,72.731766 118.179214,72.181366 
	C117.627769,72.104553 117.158012,72.157852 117.158012,72.157852 
	C117.158012,72.157852 117.000870,72.002670 116.919487,71.924072 
	C117.653671,71.231834 118.469238,70.618210 119.635040,70.002258 
	C120.755310,70.834839 121.525360,71.669746 122.211792,72.775497 
	C122.128189,73.046341 121.999435,73.349632 121.993896,73.514290 
z"/>
<path fill="#835543" opacity="1.000000" stroke="none" 
	d="
M111.990898,90.757439 
	C111.707504,91.291321 111.204483,91.617126 110.386551,91.951309 
	C110.638191,91.489578 111.204727,91.019470 111.990898,90.757439 
z"/>
<path fill="#CEA997" opacity="1.000000" stroke="none" 
	d="
M117.797081,67.753540 
	C118.050079,67.986076 117.889328,68.449463 117.824821,68.686050 
	C117.420853,68.905151 117.081398,68.887665 116.487999,68.895721 
	C116.670738,68.454521 117.107414,67.987762 117.797081,67.753540 
z"/>
<path fill="#5B2421" opacity="1.000000" stroke="none" 
	d="
M117.964798,73.756561 
	C117.789642,73.922104 117.602867,73.895943 117.154678,73.756775 
	C116.893272,73.643776 116.982246,73.339539 117.246429,73.206955 
	C117.510605,73.074364 117.908707,73.183342 117.908707,73.183342 
	C117.908707,73.183342 117.953194,73.564857 117.964798,73.756561 
z"/>
<path fill="#5A473F" opacity="1.000000" stroke="none" 
	d="
M117.960175,72.914726 
	C117.908707,73.183342 117.510605,73.074364 117.305588,73.059906 
	C117.100563,73.045456 117.109108,72.599236 117.133560,72.378540 
	C117.158012,72.157852 117.627769,72.104553 117.864922,72.105598 
	C118.071938,72.286461 118.041794,72.466286 117.960175,72.914726 
z"/>
</svg>